<?xml version="1.0" encoding="UTF-8"?>
<svg id="Layer_1" data-name="Layer 1" xmlns="http://www.w3.org/2000/svg" viewBox="0 0 422.47 48.67">
  <defs>
    <style>
      .cls-1 {
        fill: #ffce07;
      }

      .cls-2 {
        fill: #231f20;
      }
    </style>
  </defs>
  <g>
    <path class="cls-2" d="M55.58,39.67c-.72,1.25-1.48,2.41-2.27,3.49s-1.8,2.03-3.02,2.84c-1.22,.82-2.75,1.45-4.57,1.91-1.82,.46-4.15,.68-6.98,.68-2.3,0-4.57-.31-6.8-.94-2.23-.62-4.22-1.61-5.98-2.95-1.75-1.34-3.17-3.07-4.25-5.18s-1.62-4.66-1.62-7.63c0-.77,.02-1.48,.07-2.12,.05-.65,.14-1.28,.29-1.91-.38,0-.73,.04-1.04,.11-.31,.07-.73,.16-1.26,.25-.34,.14-.7,.25-1.08,.32-.38,.07-.86,.37-1.44,.9-.67,.58-1.29,.85-1.84,.83-.55-.02-.97-.19-1.26-.5-.29-.31-.41-.73-.36-1.26,.05-.53,.31-1.03,.79-1.51,.38-.29,.79-.55,1.22-.79,.38-.24,.82-.48,1.3-.72,.48-.24,.98-.43,1.51-.58,1.44-.43,2.76-.65,3.96-.65,.96-3.65,2.5-6.85,4.61-9.61,2.11-2.76,4.37-4.88,6.77-6.37-1.63-.05-3.12-.29-4.46-.72-1.34-.43-2.7-.89-4.07-1.37-1.37-.48-2.86-.91-4.46-1.3-1.61-.38-3.49-.58-5.65-.58-1.3,0-2.56,.2-3.78,.61-1.22,.41-2.3,.97-3.24,1.69-.94,.72-1.68,1.58-2.23,2.59-.55,1.01-.83,2.09-.83,3.24,0,2.26,.32,3.88,.97,4.86,.65,.98,1.38,1.65,2.2,1.98,.91,.38,1.94,.46,3.1,.22,.43-.1,.84,.01,1.22,.32,.38,.31,.64,.67,.76,1.08,.12,.41,.06,.83-.18,1.26-.24,.43-.79,.75-1.66,.94-1.82,.14-3.48-.12-4.97-.79-.62-.29-1.24-.68-1.84-1.19-.6-.5-1.14-1.14-1.62-1.91-.48-.77-.86-1.72-1.15-2.84-.29-1.13-.43-2.44-.43-3.92,0-1.87,.41-3.53,1.22-4.97,.82-1.44,1.87-2.66,3.17-3.67,1.3-1.01,2.76-1.78,4.39-2.3,1.63-.53,3.26-.79,4.9-.79,2.98,0,5.45,.24,7.42,.72,1.97,.48,3.72,1,5.26,1.55,1.54,.55,2.99,1.01,4.36,1.37,1.37,.36,2.94,.42,4.72,.18,.96-.05,1.9-.14,2.81-.29,.82-.1,1.66-.22,2.52-.36,.86-.14,1.63-.26,2.3-.36,.38-.05,.74,.06,1.08,.32,.34,.26,.56,.58,.68,.94,.12,.36,.11,.76-.04,1.19s-.53,.82-1.15,1.15c-2.83,.72-5.5,1.82-7.99,3.31-1.06,.62-2.12,1.37-3.2,2.23-1.08,.86-2.11,1.87-3.1,3.02-.98,1.15-1.87,2.44-2.66,3.85-.79,1.42-1.45,3.01-1.98,4.79,.58,.05,1.04,.1,1.4,.14,.36,.05,.71,.07,1.04,.07s.69-.01,1.08-.04c.38-.02,.89-.06,1.51-.11,.53-.14,.98-.13,1.37,.04,.38,.17,.7,.4,.94,.68,.24,.29,.4,.62,.47,1.01,.07,.38,.04,.75-.11,1.08-.34,.29-.61,.49-.83,.61-.22,.12-.46,.22-.72,.29-.26,.07-.61,.11-1.04,.11h-1.87c-.82,0-1.55-.05-2.2-.14-.65-.1-1.24-.14-1.76-.14-.14,.62-.23,1.27-.25,1.94-.02,.67-.04,1.34-.04,2.02,0,2.45,.38,4.5,1.15,6.16,.77,1.66,1.84,3,3.2,4.03,1.37,1.03,2.96,1.78,4.79,2.23,1.82,.46,3.79,.68,5.9,.68,2.3,0,4.24-.23,5.8-.68,1.56-.46,2.84-1.04,3.85-1.76s1.82-1.49,2.45-2.3c.62-.82,1.15-1.58,1.58-2.3,.29-.53,.67-.82,1.15-.86,.48-.05,.91,.04,1.3,.25,.38,.22,.67,.54,.86,.97,.19,.43,.14,.89-.14,1.37Z"/>
    <path class="cls-2" d="M90,39.67c-.58,.96-1.22,1.97-1.94,3.02s-1.52,2.02-2.41,2.9c-.89,.88-1.87,1.6-2.95,2.16-1.08,.56-2.27,.84-3.56,.84-1.1,0-2.03-.24-2.77-.72-.74-.48-1.34-1.1-1.8-1.87-.46-.77-.78-1.63-.97-2.59-.19-.96-.29-1.92-.29-2.88v-6.91c0-.77-.17-1.45-.51-2.05-.34-.6-.65-.9-.94-.9-.87,0-1.83,.25-2.9,.76s-2.11,1.16-3.15,1.98c-1.04,.82-2.01,1.78-2.93,2.88-.92,1.1-1.71,2.26-2.39,3.46v7.06c0,.58-.19,1.02-.56,1.33-.38,.31-.8,.47-1.27,.47-.42,0-.82-.16-1.2-.47-.38-.31-.56-.76-.56-1.33v-9.29c-.29,.53-.53,.96-.72,1.3-.19,.34-.36,.62-.5,.86-.29,.48-.67,.75-1.15,.79-.48,.05-.92-.05-1.33-.29-.41-.24-.7-.58-.86-1.01-.17-.43-.11-.86,.18-1.3,.14-.19,.36-.54,.65-1.04s.64-1.12,1.04-1.84c.41-.72,.85-1.49,1.33-2.3,.48-.82,.96-1.66,1.44-2.52V10.58c0-1.44,.06-2.81,.18-4.1,.12-1.3,.36-2.42,.74-3.38,.38-.96,.92-1.72,1.62-2.27,.71-.55,1.66-.83,2.86-.83,1.06,0,1.97,.41,2.74,1.22,.77,.82,1.39,1.88,1.87,3.2,.48,1.32,.77,2.78,.86,4.39,.1,1.61-.02,3.2-.36,4.79-.24,1.2-.6,2.51-1.08,3.92-.48,1.42-1.03,2.88-1.66,4.39-.62,1.51-1.31,3.02-2.05,4.54-.75,1.51-1.48,2.96-2.2,4.36l.07,2.74c.77-.86,1.57-1.69,2.41-2.48,.84-.79,1.75-1.49,2.74-2.09,.98-.6,2.03-1.09,3.13-1.48,1.1-.38,2.33-.58,3.67-.58,1.25,0,2.29,.61,3.13,1.83,.84,1.22,1.26,2.83,1.26,4.84v6.88c0,.96,.08,1.73,.25,2.33,.17,.6,.37,1.05,.61,1.36,.24,.31,.48,.53,.72,.65,.24,.12,.46,.18,.65,.18,.96,0,2.08-.52,3.35-1.55,1.27-1.03,2.7-2.89,4.28-5.58,.33-.58,.74-.89,1.22-.94,.48-.05,.91,.05,1.3,.29,.38,.24,.67,.59,.86,1.04,.19,.46,.14,.92-.14,1.4ZM62.14,3.67c-.1,0-.24,.06-.43,.18-.19,.12-.37,.42-.54,.9-.17,.48-.32,1.19-.47,2.12-.14,.94-.22,2.17-.22,3.71l.07,12.1c.77-1.82,1.45-3.6,2.05-5.33,.6-1.73,1.02-3.21,1.26-4.46,.24-1.3,.32-2.5,.25-3.6-.07-1.1-.23-2.08-.47-2.92-.24-.84-.5-1.5-.79-1.98-.29-.48-.53-.72-.72-.72Z"/>
    <path class="cls-2" d="M91.22,43.34c.38,.48,.95,.9,1.69,1.26,.74,.36,1.67,.54,2.77,.54s2.18-.19,3.1-.58c.91-.38,1.74-.9,2.48-1.55,.74-.65,1.43-1.42,2.05-2.3,.62-.89,1.22-1.81,1.8-2.77,.38-.58,.82-.9,1.3-.97,.48-.07,.91,0,1.3,.22,.38,.22,.66,.55,.83,1.01,.17,.46,.11,.95-.18,1.48-.67,1.2-1.39,2.34-2.16,3.42-.77,1.08-1.64,2.03-2.63,2.84-.98,.82-2.12,1.46-3.42,1.94s-2.78,.72-4.46,.72c-2.98,0-5.33-.94-7.06-2.81-.72-.86-1.26-1.81-1.62-2.84-.36-1.03-.56-2.09-.61-3.17-.05-1.08,.02-2.16,.22-3.24,.19-1.08,.48-2.1,.86-3.06,.53-1.3,1.13-2.36,1.8-3.2,.67-.84,1.37-1.5,2.09-1.98,.72-.48,1.43-.82,2.12-1.01,.7-.19,1.31-.29,1.84-.29,.58,0,1.15,.11,1.73,.32,.58,.22,1.1,.53,1.58,.94,.48,.41,.89,.86,1.22,1.37,.34,.5,.55,1.04,.65,1.62,.1,.43,.12,.92,.07,1.48-.05,.55-.18,1.13-.4,1.73-.22,.6-.5,1.2-.86,1.8-.36,.6-.83,1.12-1.4,1.55-.86,.67-2.06,1.21-3.6,1.62-1.54,.41-2.95,.73-4.25,.97,0,.58,.14,1.15,.43,1.73s.53,.98,.72,1.22Zm5.9-11.09c-.1-.67-.35-1.12-.76-1.33-.41-.22-.78-.32-1.12-.32-.53,0-1.26,.38-2.2,1.15-.94,.77-1.69,1.85-2.27,3.24-.1,.24-.23,.54-.4,.9-.17,.36-.25,.73-.25,1.12,.67-.1,1.33-.24,1.98-.43,.65-.19,1.24-.41,1.76-.65,.58-.24,1.15-.53,1.73-.86,.53-.38,.94-.83,1.22-1.33,.29-.5,.38-1,.29-1.48Z"/>
    <path class="cls-2" d="M132.12,14.62c0-1.82,.4-3.59,1.19-5.29,.79-1.7,1.86-3.2,3.2-4.5,1.34-1.3,2.9-2.34,4.68-3.13,1.77-.79,3.62-1.19,5.54-1.19,2.93,0,5.24,.37,6.95,1.12,1.7,.74,3,1.58,3.89,2.52,.89,.94,1.46,1.85,1.73,2.74,.26,.89,.42,1.48,.47,1.76,.1,.58-.01,1.02-.32,1.33-.31,.31-.7,.5-1.15,.58-.46,.07-.9-.01-1.33-.25-.43-.24-.7-.62-.79-1.15,0-.1-.08-.41-.25-.94-.17-.53-.56-1.09-1.19-1.69-.62-.6-1.56-1.15-2.81-1.66-1.25-.5-2.98-.76-5.18-.76-1.39,0-2.74,.32-4.03,.97s-2.45,1.47-3.46,2.48-1.83,2.13-2.45,3.38c-.62,1.25-.94,2.47-.94,3.67,0,1.96,.1,3.81,.29,5.53,.19,1.73,.4,3.43,.61,5.1,.22,1.68,.41,3.38,.58,5.1,.17,1.73,.25,3.59,.25,5.61,0,.86-.14,1.8-.43,2.8,.67,.33,1.36,.68,2.05,1.04,.7,.36,1.38,.71,2.05,1.04,1.3,.62,2.41,1.2,3.35,1.72,.94,.53,1.84,.97,2.7,1.33,.86,.36,1.74,.64,2.63,.83,.89,.19,1.91,.29,3.06,.29,1.3,0,2.4-.11,3.31-.32s1.74-.6,2.48-1.15c.74-.55,1.46-1.28,2.16-2.2,.7-.91,1.48-2.06,2.34-3.46,.33-.58,.76-.9,1.26-.97,.5-.07,.95,0,1.33,.22,.38,.22,.66,.55,.83,1.01,.17,.46,.11,.95-.18,1.48-.86,1.58-1.73,2.94-2.59,4.07-.86,1.13-1.83,2.06-2.88,2.8-1.06,.73-2.23,1.27-3.53,1.62s-2.81,.51-4.54,.51c-1.39,0-2.65-.13-3.78-.4-1.13-.26-2.21-.6-3.24-1.01-1.03-.41-2.05-.89-3.06-1.44-1.01-.55-2.09-1.12-3.24-1.69-.67-.33-1.34-.67-2.02-1.01-.67-.33-1.32-.65-1.94-.94-.48,.82-1.03,1.61-1.66,2.38-.62,.77-1.3,1.46-2.02,2.09-.72,.62-1.48,1.12-2.27,1.48-.79,.36-1.62,.54-2.48,.54-.91,0-1.83-.08-2.74-.25-.91-.17-1.73-.47-2.45-.9-.72-.43-1.31-1-1.76-1.69-.46-.7-.68-1.57-.68-2.63,0-.91,.16-1.79,.47-2.63,.31-.84,.76-1.58,1.33-2.23,.58-.65,1.27-1.16,2.09-1.55,.82-.38,1.7-.58,2.66-.58,1.25,0,2.53,.11,3.85,.32,1.32,.22,2.56,.52,3.71,.9,.19-1.73,.22-3.48,.07-5.26-.14-1.78-.35-3.6-.61-5.47-.26-1.87-.52-3.8-.76-5.8-.24-1.99-.36-4.07-.36-6.23Zm-8.5,28.66c.05,.58,.42,1.07,1.12,1.48,.7,.41,1.55,.49,2.56,.25,.24-.05,.59-.18,1.04-.4,.46-.22,.91-.5,1.37-.86,.46-.36,.91-.79,1.37-1.3,.46-.5,.8-1.07,1.04-1.69-.96-.33-1.9-.59-2.81-.76-.91-.17-1.85-.25-2.81-.25-.72,0-1.4,.31-2.05,.94-.65,.62-.92,1.49-.83,2.59Z"/>
    <path class="cls-2" d="M167.4,18.86c0,.58-.22,1.03-.65,1.37-.43,.34-.86,.5-1.3,.5-.48,0-.92-.18-1.33-.54-.41-.36-.61-.8-.61-1.33s.19-.98,.58-1.37c.38-.38,.84-.58,1.37-.58s.98,.19,1.37,.58c.38,.38,.58,.84,.58,1.37Zm2.3,26.14c.91,0,1.97-.48,3.17-1.44,1.2-.96,2.66-2.85,4.39-5.69,.33-.53,.74-.83,1.22-.9,.48-.07,.92,.01,1.33,.25,.41,.24,.7,.58,.86,1.01,.17,.43,.11,.91-.18,1.44-1.49,2.54-3.1,4.67-4.82,6.37-1.73,1.7-3.72,2.56-5.98,2.56-1.15,0-2.11-.25-2.88-.76-.77-.5-1.38-1.13-1.84-1.87-.46-.74-.78-1.55-.97-2.41-.19-.86-.29-1.66-.29-2.38v-12.31c0-.58,.19-1.02,.58-1.33,.38-.31,.79-.47,1.22-.47s.84,.16,1.22,.47c.38,.31,.58,.76,.58,1.33v12.31c0,2.54,.79,3.82,2.38,3.82Z"/>
    <path class="cls-2" d="M198.72,39.6c-1.92,3.36-3.74,5.7-5.47,7.02-1.73,1.32-3.58,1.98-5.54,1.98-1.68,0-2.93-.38-3.74-1.15-.82-.77-1.39-1.69-1.73-2.77-.34-1.08-.49-2.23-.47-3.46,.02-1.22,.04-2.29,.04-3.2v-.65l-1.37,2.3c-.29,.48-.67,.76-1.15,.83-.48,.07-.92,0-1.33-.22s-.71-.55-.9-1.01c-.19-.46-.14-.92,.14-1.4l4.61-7.34v-5.04h-3.02c-.58,0-1.02-.19-1.33-.58-.31-.38-.47-.79-.47-1.22s.16-.84,.47-1.22c.31-.38,.76-.58,1.33-.58h3.02V10.51c0-.58,.19-1.02,.58-1.33,.38-.31,.79-.47,1.22-.47s.84,.16,1.22,.47c.38,.31,.58,.76,.58,1.33v11.38h4.39c.58,0,1.02,.19,1.33,.58,.31,.38,.47,.79,.47,1.22s-.16,.84-.47,1.22c-.31,.38-.76,.58-1.33,.58h-4.39v12.48c0,2.34,.13,4.1,.4,5.27,.26,1.17,.9,1.76,1.91,1.76s1.86-.3,2.7-.9c.84-.6,1.6-1.3,2.27-2.09s1.25-1.58,1.73-2.38c.48-.79,.84-1.38,1.08-1.76,.29-.48,.67-.74,1.15-.79s.92,.04,1.33,.25c.41,.22,.71,.53,.9,.94,.19,.41,.14,.85-.14,1.33Z"/>
    <path class="cls-2" d="M217,39.6c-1.92,3.36-3.74,5.7-5.47,7.02-1.73,1.32-3.58,1.98-5.54,1.98-1.68,0-2.93-.38-3.74-1.15-.82-.77-1.39-1.69-1.73-2.77-.34-1.08-.49-2.23-.47-3.46,.02-1.22,.04-2.29,.04-3.2v-.65l-1.37,2.3c-.29,.48-.67,.76-1.15,.83-.48,.07-.92,0-1.33-.22s-.71-.55-.9-1.01c-.19-.46-.14-.92,.14-1.4l4.61-7.34v-5.04h-3.02c-.58,0-1.02-.19-1.33-.58-.31-.38-.47-.79-.47-1.22s.16-.84,.47-1.22c.31-.38,.76-.58,1.33-.58h3.02V10.51c0-.58,.19-1.02,.58-1.33,.38-.31,.79-.47,1.22-.47s.84,.16,1.22,.47c.38,.31,.58,.76,.58,1.33v11.38h4.39c.58,0,1.02,.19,1.33,.58,.31,.38,.47,.79,.47,1.22s-.16,.84-.47,1.22c-.31,.38-.76,.58-1.33,.58h-4.39v12.48c0,2.34,.13,4.1,.4,5.27,.26,1.17,.9,1.76,1.91,1.76s1.86-.3,2.7-.9c.84-.6,1.6-1.3,2.27-2.09s1.25-1.58,1.73-2.38c.48-.79,.84-1.38,1.08-1.76,.29-.48,.67-.74,1.15-.79s.92,.04,1.33,.25c.41,.22,.71,.53,.9,.94,.19,.41,.14,.85-.14,1.33Z"/>
    <path class="cls-2" d="M224.35,0c1.3,0,2.33,.5,3.1,1.51,.77,1.01,1.34,2.21,1.73,3.59,.38,1.39,.6,2.78,.65,4.17,.05,1.39,0,2.47-.14,3.23-.53,2.73-1.36,5.56-2.48,8.48-1.13,2.92-2.7,6.02-4.72,9.27v7.62c0,2.54,.07,4.36,.22,5.46,.14,1.1,.79,1.65,1.94,1.65,1.39,0,2.72-.68,4-2.05,1.27-1.37,2.51-3.06,3.71-5.08,.29-.53,.67-.82,1.15-.86,.48-.05,.92,.04,1.33,.25,.41,.22,.7,.55,.86,1.01,.17,.46,.11,.92-.18,1.4-1.92,3.26-3.72,5.57-5.4,6.91-1.68,1.34-3.5,2.02-5.47,2.02-1.54,0-2.7-.35-3.49-1.04s-1.36-1.58-1.69-2.66-.52-2.24-.54-3.49c-.02-1.25-.04-2.4-.04-3.46v-1.44c-.19,.29-.34,.52-.43,.68-.1,.17-.2,.36-.32,.58s-.26,.46-.43,.72c-.17,.26-.4,.66-.68,1.19-.34,.58-.76,.89-1.26,.94-.5,.05-.95-.05-1.33-.29-.38-.24-.66-.59-.83-1.04s-.11-.9,.18-1.33c.86-1.39,1.72-2.8,2.56-4.21,.84-1.42,1.69-2.82,2.56-4.21V10.58c0-1.44,.06-2.81,.18-4.1,.12-1.3,.36-2.41,.72-3.35,.36-.94,.91-1.69,1.66-2.27,.74-.58,1.72-.86,2.92-.86Zm-.14,3.6c-.24-.05-.47,0-.68,.14-.22,.14-.4,.47-.54,.97-.14,.5-.26,1.22-.36,2.16-.1,.94-.14,2.17-.14,3.71v11.88c.82-1.68,1.51-3.36,2.09-5.04,.58-1.68,1.01-3.19,1.3-4.54,.34-1.44,.47-2.72,.4-3.85-.07-1.13-.23-2.09-.47-2.88s-.52-1.4-.83-1.84c-.31-.43-.57-.67-.76-.72Z"/>
    <path class="cls-2" d="M236.8,43.34c.38,.48,.95,.9,1.69,1.26,.74,.36,1.67,.54,2.77,.54s2.18-.19,3.1-.58c.91-.38,1.74-.9,2.48-1.55,.74-.65,1.43-1.42,2.05-2.3,.62-.89,1.22-1.81,1.8-2.77,.38-.58,.82-.9,1.3-.97,.48-.07,.91,0,1.3,.22,.38,.22,.66,.55,.83,1.01s.11,.95-.18,1.48c-.67,1.2-1.39,2.34-2.16,3.42-.77,1.08-1.64,2.03-2.63,2.84-.98,.82-2.12,1.46-3.42,1.94s-2.78,.72-4.46,.72c-2.98,0-5.33-.94-7.06-2.81-.72-.86-1.26-1.81-1.62-2.84-.36-1.03-.56-2.09-.61-3.17-.05-1.08,.02-2.16,.22-3.24,.19-1.08,.48-2.1,.86-3.06,.53-1.3,1.13-2.36,1.8-3.2,.67-.84,1.37-1.5,2.09-1.98,.72-.48,1.43-.82,2.12-1.01,.7-.19,1.31-.29,1.84-.29,.58,0,1.15,.11,1.73,.32,.58,.22,1.1,.53,1.58,.94,.48,.41,.89,.86,1.22,1.37,.33,.5,.55,1.04,.65,1.62,.1,.43,.12,.92,.07,1.48-.05,.55-.18,1.13-.4,1.73-.22,.6-.5,1.2-.86,1.8-.36,.6-.83,1.12-1.4,1.55-.86,.67-2.06,1.21-3.6,1.62-1.54,.41-2.95,.73-4.25,.97,0,.58,.14,1.15,.43,1.73,.29,.58,.53,.98,.72,1.22Zm5.9-11.09c-.1-.67-.35-1.12-.76-1.33-.41-.22-.78-.32-1.12-.32-.53,0-1.26,.38-2.2,1.15-.94,.77-1.69,1.85-2.27,3.24-.1,.24-.23,.54-.4,.9-.17,.36-.25,.73-.25,1.12,.67-.1,1.33-.24,1.98-.43,.65-.19,1.24-.41,1.76-.65,.58-.24,1.15-.53,1.73-.86,.53-.38,.94-.83,1.22-1.33,.29-.5,.38-1,.29-1.48Z"/>
    <path class="cls-2" d="M276.76,32.69c1.15-.05,2.53-.16,4.14-.32,1.61-.17,3.3-.51,5.08-1.01,1.77-.5,3.53-1.19,5.26-2.06,1.73-.87,3.29-2.03,4.68-3.5,1.39-1.47,2.52-3.27,3.38-5.41s1.3-4.7,1.3-7.69c0-1.35-.34-2.57-1.01-3.68-.67-1.11-1.6-2.06-2.77-2.85-1.18-.79-2.56-1.41-4.14-1.84s-3.26-.65-5.04-.65c-2.5,0-4.88,.65-7.16,1.94-2.28,1.3-4.28,2.89-6.01,4.79s-3.11,3.94-4.14,6.12c-1.03,2.19-1.55,4.17-1.55,5.94v24.34c0,.58-.19,1.02-.58,1.33-.38,.31-.79,.47-1.22,.47s-.84-.16-1.22-.47c-.38-.31-.58-.76-.58-1.33V1.87c0-.58,.19-1.02,.58-1.33,.38-.31,.79-.47,1.22-.47,.48,0,.91,.16,1.3,.47,.38,.31,.58,.76,.58,1.33V11.66c.96-1.49,2.09-2.93,3.38-4.32,1.3-1.39,2.74-2.63,4.32-3.71s3.3-1.94,5.15-2.59c1.85-.65,3.78-.97,5.8-.97,1.49,0,3.19,.22,5.11,.65,1.92,.43,3.74,1.14,5.47,2.12,1.73,.98,3.18,2.28,4.36,3.89,1.18,1.61,1.76,3.59,1.76,5.94,0,3.5-.49,6.53-1.48,9.07-.98,2.54-2.28,4.68-3.89,6.41-1.61,1.73-3.41,3.12-5.4,4.18-1.99,1.06-4.01,1.86-6.05,2.41-2.04,.55-4,.94-5.87,1.15s-3.46,.35-4.75,.4c-.77-.09-1.32-.33-1.66-.71-.34-.38-.49-.78-.47-1.2,.02-.42,.23-.8,.61-1.13,.38-.33,.89-.52,1.51-.57Z"/>
    <path class="cls-2" d="M330.98,39.6c-.62,1.2-1.32,2.34-2.09,3.42-.77,1.08-1.61,2.04-2.52,2.87-.91,.83-1.92,1.49-3.02,1.98-1.11,.49-2.35,.73-3.74,.73-.77,0-1.54-.13-2.3-.4-.77-.27-1.46-.66-2.09-1.18-.62-.51-1.14-1.16-1.55-1.94-.41-.78-.61-1.67-.61-2.68,0-.86,.08-1.8,.25-2.81s.35-1.94,.54-2.81c.19-.86,.38-1.6,.58-2.2,.19-.6,.31-.95,.36-1.04,.24-.82,.25-1.33,.04-1.55s-.78-.42-1.69-.61c-.77,1.3-1.57,2.64-2.41,4.03-.84,1.39-1.67,2.78-2.48,4.18-.29,.48-.67,.76-1.15,.83-.48,.07-.92,0-1.33-.22s-.71-.54-.9-.97c-.19-.43-.14-.89,.14-1.37,.67-1.1,1.32-2.16,1.94-3.17,.53-.86,1.05-1.75,1.58-2.66,.53-.91,.94-1.63,1.22-2.16-1.25-1.1-1.87-2.45-1.87-4.03,0-.29,.05-.64,.14-1.04,.1-.41,.26-.79,.5-1.15,.24-.36,.55-.67,.94-.94,.38-.26,.89-.4,1.51-.4,.67,0,1.22,.14,1.66,.43s.77,.64,1.01,1.04c.24,.41,.41,.83,.5,1.26,.1,.43,.14,.82,.14,1.15s-.04,.64-.11,.9c-.07,.26-.11,.52-.11,.76,.53,.14,1.1,.36,1.73,.65,.62,.29,1.19,.7,1.69,1.22s.84,1.2,1.01,2.02c.17,.82,.04,1.82-.4,3.02-.14,.48-.3,1.06-.47,1.73-.17,.67-.32,1.37-.47,2.09-.14,.72-.26,1.42-.36,2.09-.1,.67-.14,1.25-.14,1.73,0,.82,.29,1.45,.86,1.91,.58,.46,1.27,.68,2.09,.68,1.68,0,3.14-.65,4.39-1.94,1.25-1.3,2.52-3.02,3.82-5.18,.29-.48,.66-.76,1.12-.83s.89,0,1.3,.22c.41,.22,.71,.53,.9,.94,.19,.41,.14,.88-.14,1.4Zm-19.8-12.53c.19-.43,.31-.76,.36-.97s-.02-.44-.22-.68c-.1-.14-.29-.17-.58-.07-.34,.05-.46,.31-.36,.79,.05,.24,.12,.4,.22,.47,.1,.07,.29,.23,.58,.47Z"/>
    <path class="cls-2" d="M331.98,18.86c0,.58-.22,1.03-.65,1.37-.43,.34-.86,.5-1.3,.5-.48,0-.92-.18-1.33-.54-.41-.36-.61-.8-.61-1.33s.19-.98,.58-1.37c.38-.38,.84-.58,1.37-.58s.98,.19,1.37,.58c.38,.38,.58,.84,.58,1.37Zm2.3,26.14c.91,0,1.97-.48,3.17-1.44,1.2-.96,2.66-2.85,4.39-5.69,.33-.53,.74-.83,1.22-.9,.48-.07,.92,.01,1.33,.25,.41,.24,.7,.58,.86,1.01,.17,.43,.11,.91-.18,1.44-1.49,2.54-3.1,4.67-4.82,6.37-1.73,1.7-3.72,2.56-5.98,2.56-1.15,0-2.11-.25-2.88-.76-.77-.5-1.38-1.13-1.84-1.87-.46-.74-.78-1.55-.97-2.41-.19-.86-.29-1.66-.29-2.38v-12.31c0-.58,.19-1.02,.58-1.33,.38-.31,.79-.47,1.22-.47s.84,.16,1.22,.47c.38,.31,.58,.76,.58,1.33v12.31c0,2.54,.79,3.82,2.38,3.82Z"/>
    <path class="cls-2" d="M380.37,39.74c-1.97,3.46-3.84,5.8-5.62,7.02-1.78,1.22-3.55,1.84-5.33,1.84-1.01,0-1.87-.23-2.59-.68-.72-.46-1.31-1.06-1.76-1.8-.46-.74-.79-1.58-1.01-2.52-.22-.94-.32-1.88-.32-2.84v-6.77c0-.86-.14-1.62-.43-2.27-.29-.65-.62-1.02-1.01-1.12-.62-.1-1.32,.13-2.09,.68-.77,.55-1.51,1.25-2.23,2.09-.72,.84-1.39,1.72-2.02,2.63-.62,.91-1.1,1.73-1.44,2.45v8.35c0,.58-.19,1.02-.58,1.33-.38,.31-.79,.47-1.22,.47s-.84-.16-1.22-.47c-.38-.31-.58-.76-.58-1.33v-12.82c0-.58-.02-1.12-.07-1.62-.05-.5-.19-.8-.43-.9-.19,0-.53,.32-1.01,.97-.48,.65-.98,1.42-1.51,2.3-.53,.89-1.06,1.79-1.58,2.7-.53,.91-.96,1.66-1.3,2.23-.34,.53-.76,.83-1.26,.9-.5,.07-.95,0-1.33-.22-.38-.22-.66-.55-.83-1.01-.17-.46-.11-.92,.18-1.4,.62-.91,1.28-1.99,1.98-3.24,.7-1.25,1.44-2.45,2.23-3.6,.79-1.15,1.62-2.12,2.48-2.92,.86-.79,1.8-1.19,2.81-1.19,.53,0,.98,.18,1.37,.54,.38,.36,.71,.79,.97,1.3,.26,.5,.47,1.03,.61,1.58,.14,.55,.22,1.02,.22,1.4,.33-.48,.76-1.01,1.26-1.58,.5-.58,1.09-1.1,1.76-1.58,.67-.48,1.4-.88,2.2-1.19,.79-.31,1.64-.47,2.56-.47,1.01,0,1.85,.24,2.52,.72,.67,.48,1.2,1.08,1.58,1.8,.38,.72,.65,1.48,.79,2.27,.14,.79,.22,1.52,.22,2.2v6.77c0,1.78,.23,2.93,.68,3.46,.46,.53,.92,.79,1.4,.79,.53,0,1.04-.07,1.55-.22,.5-.14,1.04-.46,1.62-.94,.58-.48,1.24-1.19,1.98-2.12,.74-.94,1.62-2.2,2.63-3.78,.29-.53,.67-.82,1.15-.86,.48-.05,.92,.04,1.33,.25,.41,.22,.7,.54,.86,.97,.17,.43,.11,.91-.18,1.44Z"/>
    <path class="cls-2" d="M403.84,39.82c-.48,.77-1.03,1.66-1.66,2.66-.62,1.01-1.45,1.97-2.48,2.88-1.03,.91-2.3,1.69-3.82,2.34-1.51,.65-3.4,.97-5.65,.97-1.3,0-2.69-.19-4.18-.58-1.49-.38-2.87-1-4.14-1.84-1.27-.84-2.33-1.94-3.17-3.31-.84-1.37-1.26-3.06-1.26-5.08,0-1.63,.31-3.11,.94-4.43s1.45-2.46,2.48-3.42c1.03-.96,2.23-1.7,3.6-2.23,1.37-.53,2.77-.79,4.21-.79,.67,0,1.31,.02,1.91,.07,.6,.05,1.31,.14,2.12,.29,.53,.1,.92,.35,1.19,.76,.26,.41,.38,.83,.36,1.26-.02,.43-.18,.82-.47,1.15s-.72,.48-1.3,.43c-.48-.05-.82-.1-1.01-.14-.19-.05-.37-.08-.54-.11-.17-.02-.41-.05-.72-.07-.31-.02-.83-.04-1.55-.04-1.01,0-1.98,.18-2.92,.54-.94,.36-1.75,.85-2.45,1.48-.7,.62-1.25,1.38-1.66,2.27-.41,.89-.61,1.88-.61,2.99,0,1.25,.28,2.33,.83,3.24,.55,.91,1.26,1.66,2.12,2.23s1.84,1.01,2.92,1.3,2.17,.43,3.28,.43c1.63,0,3-.24,4.1-.72,1.1-.48,2.04-1.07,2.81-1.76,.77-.7,1.42-1.46,1.94-2.3,.53-.84,1.03-1.62,1.51-2.34,.29-.48,.68-.74,1.19-.79s.96,.05,1.37,.29c.41,.24,.7,.58,.86,1.01,.17,.43,.11,.89-.18,1.37Z"/>
    <path class="cls-2" d="M405.06,43.34c.38,.48,.95,.9,1.69,1.26,.74,.36,1.67,.54,2.77,.54s2.18-.19,3.1-.58c.91-.38,1.74-.9,2.48-1.55,.74-.65,1.43-1.42,2.05-2.3,.62-.89,1.22-1.81,1.8-2.77,.38-.58,.82-.9,1.3-.97,.48-.07,.91,0,1.3,.22,.38,.22,.66,.55,.83,1.01s.11,.95-.18,1.48c-.67,1.2-1.39,2.34-2.16,3.42-.77,1.08-1.64,2.03-2.63,2.84-.98,.82-2.12,1.46-3.42,1.94s-2.78,.72-4.46,.72c-2.98,0-5.33-.94-7.06-2.81-.72-.86-1.26-1.81-1.62-2.84-.36-1.03-.56-2.09-.61-3.17-.05-1.08,.02-2.16,.22-3.24,.19-1.08,.48-2.1,.86-3.06,.53-1.3,1.13-2.36,1.8-3.2,.67-.84,1.37-1.5,2.09-1.98,.72-.48,1.43-.82,2.12-1.01,.7-.19,1.31-.29,1.84-.29,.58,0,1.15,.11,1.73,.32,.58,.22,1.1,.53,1.58,.94,.48,.41,.89,.86,1.22,1.37,.33,.5,.55,1.04,.65,1.62,.1,.43,.12,.92,.07,1.48-.05,.55-.18,1.13-.4,1.73-.22,.6-.5,1.2-.86,1.8-.36,.6-.83,1.12-1.4,1.55-.86,.67-2.06,1.21-3.6,1.62-1.54,.41-2.95,.73-4.25,.97,0,.58,.14,1.15,.43,1.73,.29,.58,.53,.98,.72,1.22Zm5.9-11.09c-.1-.67-.35-1.12-.76-1.33-.41-.22-.78-.32-1.12-.32-.53,0-1.26,.38-2.2,1.15-.94,.77-1.69,1.85-2.27,3.24-.1,.24-.23,.54-.4,.9-.17,.36-.25,.73-.25,1.12,.67-.1,1.33-.24,1.98-.43,.65-.19,1.24-.41,1.76-.65,.58-.24,1.15-.53,1.73-.86,.53-.38,.94-.83,1.22-1.33,.29-.5,.38-1,.29-1.48Z"/>
  </g>
  <polygon class="cls-1" points="329.68 5.51 332.87 11.97 340 13.01 334.84 18.04 336.06 25.14 329.68 21.78 323.3 25.14 324.52 18.04 319.36 13.01 326.49 11.97 329.68 5.51"/>
</svg>