<?xml version="1.0" encoding="utf-8"?>
<!-- Generator: Adobe Illustrator 26.5.0, SVG Export Plug-In . SVG Version: 6.00 Build 0)  -->
<svg version="1.1" id="Layer_1" xmlns="http://www.w3.org/2000/svg" xmlns:xlink="http://www.w3.org/1999/xlink" x="0px" y="0px"
	 viewBox="0 0 275.2 183.1" style="enable-background:new 0 0 275.2 183.1;" xml:space="preserve">
<path d="M19.6,156.2c-4.3,0-7.8-0.8-10.7-2.3s-5-3.9-6.5-7s-2.3-7.3-2.4-12.3l12.9-1.9c0.1,2.9,0.3,5.3,0.8,7.1
	c0.5,1.8,1.1,3.1,2,3.9s1.9,1.2,3.1,1.2c1.6,0,2.6-0.5,3.1-1.6c0.5-1.1,0.7-2.2,0.7-3.4c0-2.8-0.7-5.2-2-7.1
	c-1.4-1.9-3.2-3.9-5.5-5.8l-5.9-5.1c-2.6-2.2-4.8-4.7-6.5-7.4c-1.8-2.8-2.7-6.2-2.7-10.3c0-5.8,1.7-10.2,5.1-13.2
	c3.4-3.1,8.1-4.6,14-4.6c3.6,0,6.6,0.6,8.8,1.8c2.2,1.2,3.9,2.8,5,4.8c1.2,2,1.9,4.1,2.3,6.3c0.4,2.2,0.7,4.3,0.7,6.3l-13,1.6
	c-0.1-2-0.2-3.8-0.4-5.3c-0.2-1.5-0.6-2.6-1.2-3.4c-0.6-0.8-1.6-1.2-2.9-1.2c-1.4,0-2.4,0.6-3.1,1.8c-0.6,1.2-1,2.3-1,3.5
	c0,2.5,0.6,4.6,1.8,6.2s2.8,3.3,4.8,5l5.6,5c3,2.5,5.5,5.4,7.5,8.6s3.1,7.2,3.1,11.9c0,3.2-0.7,6.1-2.2,8.7
	c-1.5,2.6-3.5,4.7-6.2,6.2S23.2,156.2,19.6,156.2L19.6,156.2z"/>
<path d="M47,155.2V87.1h30.6v10.3H62.1v16.9h11.9v10.4H62.1v20.3h15.7v10.2H47L47,155.2z"/>
<path d="M84.3,155.2l12.9-68.1h17.2l12.7,68.1h-13.9l-2.3-14.4h-10l-2.3,14.4C98.5,155.2,84.3,155.2,84.3,155.2z M102.2,131.8h7.2
	l-3.6-26.6L102.2,131.8L102.2,131.8z"/>
<path d="M205.1,155.2V87.1h15.1v57.9h15.6v10.2H205.1z"/>
<path d="M244.4,155.2V87.1H275v10.3h-15.6v16.9h11.9v10.4h-11.9v20.3h15.7v10.2H244.4L244.4,155.2z"/>
<g>
	<g>
		<g>
			<path d="M153.1,69.1c5.9,24.5,3.2,62.2-7.9,114h-15.7c13.5-62.9,12-96.3,8-111.9"/>
			<path d="M172.6,76.1c-3.9,24.4-0.9,59.9,9.3,107.1h15.7c-13.5-62.9-12-96.3-8-111.9"/>
		</g>
		<ellipse cx="161.1" cy="29.1" rx="25" ry="8.1"/>
		<path d="M161.1,79.6c-28,0-75.3-5.3-75.3-25.4s47.3-25.4,75.3-25.4s75.3,5.3,75.3,25.4S189.1,79.6,161.1,79.6z M97.9,54.2
			c0.4,1,4.3,4.9,17.6,8.4c12.4,3.2,28.6,5,45.7,5s33.3-1.8,45.7-5c13.3-3.5,17.1-7.3,17.6-8.4c-0.4-1-4.3-4.9-17.6-8.4
			c-12.4-3.2-28.6-5-45.7-5s-33.3,1.8-45.7,5C102.2,49.3,98.3,53.2,97.9,54.2z"/>
	</g>
	<polygon points="161.1,0 164.3,17.4 167.5,34.9 161.1,34.9 154.8,34.9 158,17.4 	"/>
</g>
</svg>
